<svg preserveAspectRatio="none" width="100%" height="100%" overflow="visible" style="display: block;" viewBox="0 0 24 24" fill="none" xmlns="http://www.w3.org/2000/svg">
<g id="apple">
<path id="Vector" d="M12.5 5.91571C12.3675 5.91571 12.2404 5.86429 12.1466 5.7727C12.0527 5.68112 11.9998 5.55685 11.9995 5.42714C11.9995 4.51821 12.3683 3.6465 13.0248 3.00379C13.6813 2.36107 14.5717 2 15.5001 2C15.7774 2 15.9992 2.22 15.9992 2.49C15.9984 3.39819 15.6295 4.26895 14.9733 4.911C14.3172 5.55306 13.4276 5.91391 12.5 5.91429V5.91571ZM19.8005 16.2243C19.9931 16.3657 20.0558 16.6243 19.9464 16.8343C18.188 20.2829 16.7828 22 15.5001 22C14.9033 22 14.3167 21.8114 13.7447 21.4429C13.3361 21.1794 12.8598 21.0342 12.3707 21.0238C11.8815 21.0134 11.3993 21.1384 10.9795 21.3843C10.2878 21.79 9.62676 22 9.00076 22C7.11252 22 4 16.3114 4 13.1886C4 9.85714 5.78463 7.31429 8.50024 7.31429C9.77706 7.31429 10.8802 7.5 11.8068 7.87143C12.1994 8.03143 12.643 8.02 13.0268 7.84C13.7783 7.48571 14.7691 7.31429 16.0006 7.31429C17.5036 7.31429 18.8111 8.04714 19.8997 9.46857C19.9793 9.57241 20.0136 9.70296 19.995 9.83153C19.9764 9.9601 19.9064 10.0762 19.8005 10.1543C18.5849 11.0457 17.9998 12.0486 17.9998 13.1886C17.9998 14.33 18.5849 15.3314 19.8005 16.2243V16.2243Z" stroke="url(#paint0_linear_0_4)"/>
</g>
<defs>
<linearGradient id="paint0_linear_0_4" x1="4" y1="12" x2="20" y2="12" gradientUnits="userSpaceOnUse">
<stop stop-color="#CBFF00" stop-opacity="0.4"/>
<stop offset="1" stop-color="#07F499" stop-opacity="0.4"/>
</linearGradient>
</defs>
</svg>
