<svg width="24" height="24" viewBox="0 0 24 24" fill="none" xmlns="http://www.w3.org/2000/svg">
<path d="M15.6695 14.8666C16.01 14.9802 16.3781 14.7961 16.4916 14.4555C16.6052 14.115 16.4211 13.7469 16.0805 13.6334L15.875 14.25L15.6695 14.8666ZM12.5 13.125H11.85C11.85 13.4048 12.029 13.6532 12.2945 13.7416L12.5 13.125ZM13.15 8.42087C13.15 8.06188 12.859 7.77087 12.5 7.77087C12.141 7.77087 11.85 8.06188 11.85 8.42087H12.5H13.15ZM15.875 14.25L16.0805 13.6334L12.7055 12.5084L12.5 13.125L12.2945 13.7416L15.6695 14.8666L15.875 14.25ZM12.5 13.125H13.15V8.42087H12.5H11.85V13.125H12.5ZM21.5 12H20.85C20.85 16.6116 17.1116 20.35 12.5 20.35V21V21.65C17.8295 21.65 22.15 17.3295 22.15 12H21.5ZM12.5 21V20.35C7.88842 20.35 4.15 16.6116 4.15 12H3.5H2.85C2.85 17.3295 7.17045 21.65 12.5 21.65V21ZM3.5 12H4.15C4.15 7.38842 7.88842 3.65 12.5 3.65V3V2.35C7.17045 2.35 2.85 6.67045 2.85 12H3.5ZM12.5 3V3.65C17.1116 3.65 20.85 7.38842 20.85 12H21.5H22.15C22.15 6.67045 17.8295 2.35 12.5 2.35V3Z" fill="url(#paint0_linear_814_6311)"/>
<defs>
<linearGradient id="paint0_linear_814_6311" x1="3.5" y1="12" x2="21.5" y2="12" gradientUnits="userSpaceOnUse">
<stop stop-color="#CBFF00"/>
<stop offset="1" stop-color="#07F499"/>
</linearGradient>
</defs>
</svg>
