<svg width="17" height="14" viewBox="0 0 17 14" fill="none" xmlns="http://www.w3.org/2000/svg">
<path d="M10.8285 7.04333L10.0817 6.29646C10.1372 5.69396 9.95882 5.22042 9.54646 4.87583C9.1341 4.53125 8.70139 4.38674 8.24833 4.44229L7.50146 3.69542C7.5859 3.67944 7.67993 3.66743 7.78354 3.65937C7.88715 3.65146 7.99347 3.6475 8.1025 3.6475C8.88236 3.6475 9.54313 3.91833 10.0848 4.46C10.6265 5.00167 10.8973 5.66243 10.8973 6.44229C10.8973 6.55132 10.8933 6.66299 10.8854 6.77729C10.8774 6.8916 10.8584 6.98028 10.8285 7.04333ZM13.5673 9.75L13.0608 9.27563C13.5608 8.88674 14.0157 8.45965 14.4254 7.99437C14.8351 7.5291 15.1789 7.01174 15.4567 6.44229C14.7761 5.03951 13.7726 3.93882 12.4462 3.14021C11.1199 2.3416 9.67194 1.94229 8.1025 1.94229C7.74139 1.94229 7.38722 1.96312 7.04 2.00479C6.69278 2.04646 6.3525 2.1159 6.01917 2.21312L5.45188 1.64583C5.89424 1.49097 6.3416 1.39056 6.79396 1.34458C7.24646 1.29861 7.68264 1.27562 8.1025 1.27562C9.80014 1.27562 11.4024 1.73104 12.9094 2.64188C14.4163 3.55257 15.5149 4.81937 16.205 6.44229C15.9208 7.08437 15.5574 7.67222 15.1146 8.20583C14.6717 8.73958 14.1559 9.2543 13.5673 9.75ZM14.0383 13.3494L11.5865 10.8654C11.1762 11.0706 10.6701 11.2458 10.0681 11.391C9.46604 11.5363 8.81083 11.609 8.1025 11.609C6.39417 11.609 4.79188 11.1535 3.29563 10.2427C1.79938 9.33201 0.700833 8.06521 0 6.44229C0.3375 5.65062 0.799028 4.92305 1.38458 4.25958C1.97 3.59611 2.61208 3.03257 3.31083 2.56896L1.19542 0.485625L1.68104 0L14.524 12.8637L14.0383 13.3494ZM3.79646 3.07521C3.23549 3.44285 2.66389 3.92069 2.08167 4.50875C1.49944 5.09694 1.055 5.74146 0.748333 6.44229C1.42889 7.84507 2.43236 8.94576 3.75875 9.74438C5.08514 10.543 6.53306 10.9423 8.1025 10.9423C8.66667 10.9423 9.23451 10.8886 9.80604 10.7812C10.3776 10.6739 10.821 10.5518 11.1362 10.415L9.58958 8.90063C9.41653 9.00215 9.18472 9.08361 8.89417 9.145C8.60361 9.20639 8.33972 9.23708 8.1025 9.23708C7.32264 9.23708 6.66188 8.96625 6.12021 8.42458C5.57854 7.88292 5.30771 7.22215 5.30771 6.44229C5.30771 6.21576 5.34535 5.95986 5.42063 5.67458C5.4959 5.38944 5.57042 5.14965 5.64417 4.95521L3.79646 3.07521Z" fill="#F5F5F5" fill-opacity="0.6"/>
</svg>
