<svg width="24" height="24" viewBox="0 0 24 24" fill="none" xmlns="http://www.w3.org/2000/svg">
<path d="M7.85488 19.8918C7.54025 19.9958 7.36948 20.3352 7.47346 20.6498C7.57744 20.9644 7.9168 21.1352 8.23143 21.0312L8.04316 20.4615L7.85488 19.8918ZM13.8622 20.8462L13.8082 20.2486V20.2486L13.8622 20.8462ZM17.3536 20.0769L17.6149 20.617V20.617L17.3536 20.0769ZM20.6897 17.0681L20.2251 16.6885V16.6885L20.6897 17.0681ZM18.408 15.1854L18.8304 15.6115V15.6115L18.408 15.1854ZM16.8715 16.7087L17.294 17.1348H17.294L16.8715 16.7087ZM12.6984 16.7846C12.367 16.7846 12.0984 17.0532 12.0984 17.3846C12.0984 17.716 12.367 17.9846 12.6984 17.9846V17.3846V16.7846ZM20.335 14.9962L20.0041 15.4968V15.4968L20.335 14.9962ZM9.22402 14.4915L9.4905 15.0291V15.0291L9.22402 14.4915ZM13.4001 14.1128L13.5567 13.5336V13.5336L13.4001 14.1128ZM15.0309 14.5538L14.8743 15.133V15.133L15.0309 14.5538ZM15.5476 16.4829L15.1252 16.0568V16.0568L15.5476 16.4829ZM14.2156 16.9585C13.9803 17.1918 13.9787 17.5717 14.212 17.8071C14.4453 18.0424 14.8252 18.044 15.0605 17.8107L14.6381 17.3846L14.2156 16.9585ZM8.04316 20.4615L8.23143 21.0312C8.40635 20.9734 8.69666 20.952 9.12828 20.9825C9.54769 21.0122 10.0323 21.0845 10.5694 21.1682C11.6086 21.33 12.8562 21.5395 13.9162 21.4437L13.8622 20.8462L13.8082 20.2486C12.9285 20.328 11.8485 20.1529 10.754 19.9825C10.2243 19.9 9.6906 19.8193 9.21291 19.7855C8.74743 19.7526 8.26187 19.7573 7.85488 19.8918L8.04316 20.4615ZM13.8622 20.8462L13.9162 21.4437C15.4326 21.3068 16.1108 21.3448 17.6149 20.617L17.3536 20.0769L17.0923 19.5368C15.8195 20.1526 15.369 20.1076 13.8082 20.2486L13.8622 20.8462ZM17.3536 20.0769L17.6149 20.617C18.9563 19.9681 20.3167 18.4732 21.1544 17.4476L20.6897 17.0681L20.2251 16.6885C19.3815 17.7211 18.1682 19.0162 17.0923 19.5368L17.3536 20.0769ZM18.408 15.1854L17.9856 14.7593L16.4491 16.2826L16.8715 16.7087L17.294 17.1348L18.8304 15.6115L18.408 15.1854ZM15.2257 17.3846V16.7846H12.6984V17.3846V17.9846H15.2257V17.3846ZM16.8715 16.7087L16.4491 16.2826C16.1255 16.6035 15.6855 16.7846 15.2257 16.7846V17.3846V17.9846C16.0005 17.9846 16.7446 17.6795 17.294 17.1348L16.8715 16.7087ZM20.335 14.9962L20.6658 14.4957C19.8236 13.939 18.7026 14.0484 17.9856 14.7593L18.408 15.1854L18.8304 15.6115C19.1429 15.3017 19.6349 15.2527 20.0041 15.4968L20.335 14.9962ZM20.6897 17.0681L21.1544 17.4476C21.9332 16.4943 21.6447 15.1427 20.6658 14.4957L20.335 14.9962L20.0041 15.4968C20.4407 15.7853 20.5169 16.3312 20.2251 16.6885L20.6897 17.0681ZM3.77587 13.5385V14.1385H6.87935V13.5385V12.9385H3.77587V13.5385ZM7.65522 14.3077H7.05522V21.2308H7.65522H8.25522V14.3077H7.65522ZM6.87935 22V21.4H3.77587V22V22.6H6.87935V22ZM3 21.2308H3.6V14.3077H3H2.4V21.2308H3ZM3.77587 22V21.4C3.67387 21.4 3.6 21.3194 3.6 21.2308H3H2.4C2.4 21.9918 3.02087 22.6 3.77587 22.6V22ZM7.65522 21.2308H7.05522C7.05522 21.3194 6.98136 21.4 6.87935 21.4V22V22.6C7.63435 22.6 8.25522 21.9918 8.25522 21.2308H7.65522ZM6.87935 13.5385V14.1385C6.98135 14.1385 7.05522 14.2191 7.05522 14.3077H7.65522H8.25522C8.25522 13.5466 7.63435 12.9385 6.87935 12.9385V13.5385ZM3.77587 13.5385V12.9385C3.02087 12.9385 2.4 13.5466 2.4 14.3077H3H3.6C3.6 14.2191 3.67387 14.1385 3.77587 14.1385V13.5385ZM8.04316 15.0769L8.30964 15.6145L9.4905 15.0291L9.22402 14.4915L8.95753 13.954L7.77667 14.5393L8.04316 15.0769ZM11.6529 13.9231V14.5231H11.9711V13.9231V13.3231H11.6529V13.9231ZM13.4001 14.1128L13.2435 14.692L14.8743 15.133L15.0309 14.5538L15.1875 13.9746L13.5567 13.5336L13.4001 14.1128ZM15.5476 16.4829L15.1252 16.0568L14.2156 16.9585L14.6381 17.3846L15.0605 17.8107L15.97 16.9089L15.5476 16.4829ZM15.0309 14.5538L14.8743 15.133C15.295 15.2467 15.425 15.7595 15.1252 16.0568L15.5476 16.4829L15.97 16.9089C16.9339 15.9533 16.491 14.327 15.1875 13.9746L15.0309 14.5538ZM11.9711 13.9231V14.5231C12.4009 14.5231 12.8288 14.5799 13.2435 14.692L13.4001 14.1128L13.5567 13.5336C13.0399 13.3939 12.5066 13.3231 11.9711 13.3231V13.9231ZM9.22402 14.4915L9.4905 15.0291C10.1617 14.6964 10.902 14.5231 11.6529 14.5231V13.9231V13.3231C10.7174 13.3231 9.79465 13.539 8.95753 13.954L9.22402 14.4915ZM17.7415 8.15385H17.1415C17.1415 9.51696 16.0256 10.6308 14.6381 10.6308V11.2308V11.8308C16.6786 11.8308 18.3415 10.1894 18.3415 8.15385H17.7415ZM14.6381 11.2308V10.6308C13.2505 10.6308 12.1346 9.51696 12.1346 8.15385H11.5346H10.9346C10.9346 10.1894 12.5976 11.8308 14.6381 11.8308V11.2308ZM11.5346 8.15385H12.1346C12.1346 6.79073 13.2505 5.67692 14.6381 5.67692V5.07692V4.47692C12.5976 4.47692 10.9346 6.11829 10.9346 8.15385H11.5346ZM14.6381 5.07692V5.67692C16.0256 5.67692 17.1415 6.79073 17.1415 8.15385H17.7415H18.3415C18.3415 6.11829 16.6786 4.47692 14.6381 4.47692V5.07692ZM11.5346 8.15385V7.55385C10.1471 7.55385 9.03109 6.44004 9.03109 5.07692H8.43109H7.83109C7.83109 7.11248 9.49407 8.75385 11.5346 8.75385V8.15385ZM8.43109 5.07692H9.03109C9.03109 3.71381 10.1471 2.6 11.5346 2.6V2V1.4C9.49407 1.4 7.83109 3.04136 7.83109 5.07692H8.43109ZM11.5346 2V2.6C12.9221 2.6 14.0381 3.71381 14.0381 5.07692H14.6381H15.2381C15.2381 3.04136 13.5751 1.4 11.5346 1.4V2Z" fill="url(#paint0_linear_779_1594)"/>
<defs>
<linearGradient id="paint0_linear_779_1594" x1="3" y1="12" x2="21" y2="12" gradientUnits="userSpaceOnUse">
<stop stop-color="#CBFF00"/>
<stop offset="1" stop-color="#07F499"/>
</linearGradient>
</defs>
</svg>
