<svg xmlns="http://www.w3.org/2000/svg" width="32" height="32" fill="none" viewBox="0 0 32 32">
    <path fill="currentColor"
          d="M17.976 15.746a.65.65 0 1 0 1.296.099l-.648-.05zm-2.41-2.897.02-.65zm-3.167 2.4h.65zm3.167 1.965v-.65zm-2.517 1.964a.65.65 0 1 0-1.3 0h1.3m3.025-7.65a.65.65 0 1 0-1.3 0h1.3m-1.3 11.38a.65.65 0 0 0 1.3 0h-1.3m1.889-14.919a.65.65 0 1 0 .197-1.285l-.099.643zm-11.05 7.64.642.098zm8.203 11.257-.098.643zM25.608 18.7a.65.65 0 1 0-1.286-.194l.643.097zm-2.605-4.548a.65.65 0 1 0 1.3 0h-1.3M23.653 4l.519-.392a.65.65 0 0 0-1.044.008zM20.37 7.39a.65.65 0 1 0 1.05.767l-.526-.384zm5.611.775a.65.65 0 0 0 1.038-.783l-.519.391zM15.424 21.469l.013-.65zm3.2-5.674.648.05v-.008l.001-.012a2 2 0 0 0 .004-.156 3.707 3.707 0 0 0-.37-1.596 3.1 3.1 0 0 0-1.131-1.27c-.556-.355-1.275-.576-2.19-.604l-.02.65-.02.65c.723.021 1.205.192 1.53.4.325.207.53.474.664.746a2.4 2.4 0 0 1 .236 1.104q0 .001 0 0v-.002zm-6.225-.546h-.65c0 .312.13.974.703 1.562.588.605 1.566 1.053 3.114 1.053v-1.3c-1.292 0-1.898-.366-2.182-.66a1.3 1.3 0 0 1-.281-.434 1 1 0 0 1-.046-.16c-.008-.045-.008-.066-.008-.061zm3.167 1.965v.65c1.295 0 1.846.369 2.095.666.265.32.313.708.313.976h1.3c0-.387-.062-1.145-.615-1.808-.57-.684-1.548-1.134-3.093-1.134zm3.058 2.292h-.65c0 .205-.375 1.314-2.408 1.314v1.3c2.555 0 3.708-1.51 3.708-2.614zM16.76 7.346l.099-.642c-5.705-.876-11.024 3.083-11.89 8.829l.643.097.642.097c.76-5.046 5.425-8.504 10.408-7.738zM5.613 15.63l-.643-.097c-.866 5.744 3.044 11.12 8.748 11.996l.098-.643.1-.642c-4.985-.766-8.421-5.47-7.66-10.517zm8.203 11.256-.098.643c5.705.876 11.024-3.083 11.89-8.83l-.643-.096-.643-.097c-.76 5.046-5.424 8.503-10.407 7.738zm9.837-12.734h.65V4h-1.3v10.152zm0-10.152-.525-.384L20.37 7.39l.524.383.525.384 2.758-3.773zm0 0-.52.392 2.848 3.773.519-.392.519-.391-2.847-3.774zm-8.23 17.469h-.65v1.438h1.3V21.47zm.143.001v-.65l-.13-.001-.012.65-.013.65.155.001zm-.142-.001.013-.65c-.996-.02-1.587-.273-1.92-.562-.321-.28-.468-.653-.468-1.079h-1.3c0 .75.272 1.5.915 2.06.633.55 1.555.856 2.747.88zm0-9.94h-.65v1.317h1.3v-1.318zm.142 1.32.02-.65-.155-.003-.007.65-.007.65.13.002zm-.142-.003.007-.65c-1.724-.018-2.722.562-3.24 1.361-.482.745-.442 1.541-.442 1.692h1.3c0-.182-.013-.603.234-.985.212-.328.727-.783 2.134-.768z"/>
</svg>