<svg xmlns="http://www.w3.org/2000/svg" width="32" height="32" fill="none" viewBox="0 0 32 32">
    <path fill="currentColor"
          d="M15.375 24.75v-4.692a4.98 4.98 0 0 1-2.999-1.25q-1.275-1.12-1.597-2.822-1.984-.234-3.381-1.627Q6 12.967 6 11v-.48q0-.84.59-1.43t1.43-.59h2.547v-.48q0-.84.59-1.43t1.43-.59h6.826q.84 0 1.43.59t.59 1.43v.48h2.548q.838 0 1.429.59.59.59.59 1.43V11q0 1.965-1.398 3.36-1.398 1.392-3.38 1.626-.324 1.701-1.598 2.823a4.98 4.98 0 0 1-2.999 1.249v4.692h3.27q.266 0 .445.18.18.177.18.445 0 .267-.18.446a.6.6 0 0 1-.446.179h-7.788a.6.6 0 0 1-.446-.18.6.6 0 0 1-.18-.445q0-.267.18-.446.18-.18.446-.179zm-4.808-10.106V9.75H8.02a.75.75 0 0 0-.553.216.75.75 0 0 0-.216.553V11q0 1.404.952 2.441a3.7 3.7 0 0 0 2.365 1.203m8.366 2.99q1.202-1.2 1.202-2.932V8.019a.75.75 0 0 0-.217-.553.75.75 0 0 0-.553-.216h-6.73a.75.75 0 0 0-.553.216.75.75 0 0 0-.217.553v6.683q0 1.73 1.202 2.933Q14.27 18.836 16 18.837t2.933-1.202m2.5-2.99a3.7 3.7 0 0 0 2.365-1.203A3.5 3.5 0 0 0 24.75 11v-.48a.75.75 0 0 0-.216-.554.75.75 0 0 0-.553-.216h-2.548z"/>
</svg>