<svg width="24" height="24" viewBox="0 0 24 24" fill="none" xmlns="http://www.w3.org/2000/svg">
<path d="M12.0984 2.80369H6.4119C4.52756 2.80369 3 4.3312 3 6.21548V17.5882C3 19.4725 4.52756 21 6.4119 21H17.7849C19.6692 21 21.1968 19.4725 21.1968 17.5882L21.1968 11.9018M8.68649 15.3136L12.8244 14.4799C13.044 14.4356 13.2457 14.3274 13.4041 14.1689L22.6671 4.90116C23.1112 4.45682 23.1109 3.73657 22.6664 3.2926L20.7042 1.33264C20.2599 0.888856 19.54 0.889158 19.0961 1.33332L9.8321 10.6021C9.674 10.7602 9.56605 10.9615 9.52175 11.1807L8.68649 15.3136Z" stroke="#F5F5F5" stroke-opacity="0.6" stroke-width="1.2" stroke-linecap="round" stroke-linejoin="round"/>
</svg>
