<svg width="17" height="11" viewBox="0 0 17 11" fill="none" xmlns="http://www.w3.org/2000/svg">
<path d="M10.0848 7.14521C10.6265 6.60104 10.8973 5.94028 10.8973 5.16292C10.8973 4.38556 10.6252 3.72604 10.081 3.18437C9.53687 2.64271 8.87611 2.37187 8.09875 2.37187C7.32139 2.37187 6.66188 2.64396 6.12021 3.18813C5.57854 3.73229 5.30771 4.39306 5.30771 5.17042C5.30771 5.94778 5.57979 6.60729 6.12396 7.14896C6.66813 7.69063 7.32889 7.96146 8.10625 7.96146C8.88361 7.96146 9.54313 7.68938 10.0848 7.14521ZM6.68583 6.58333C6.29694 6.19444 6.1025 5.72222 6.1025 5.16667C6.1025 4.61111 6.29694 4.13889 6.68583 3.75C7.07472 3.36111 7.54694 3.16667 8.1025 3.16667C8.65806 3.16667 9.13028 3.36111 9.51917 3.75C9.90806 4.13889 10.1025 4.61111 10.1025 5.16667C10.1025 5.72222 9.90806 6.19444 9.51917 6.58333C9.13028 6.97222 8.65806 7.16667 8.1025 7.16667C7.54694 7.16667 7.07472 6.97222 6.68583 6.58333ZM3.29479 8.92229C1.85146 7.9816 0.753194 6.72972 0 5.16667C0.753194 3.60361 1.85069 2.35174 3.2925 1.41104C4.73431 0.470347 6.33687 0 8.10021 0C9.86354 0 11.4669 0.470347 12.9102 1.41104C14.3535 2.35174 15.4518 3.60361 16.205 5.16667C15.4518 6.72972 14.3543 7.9816 12.9125 8.92229C11.4707 9.86299 9.86812 10.3333 8.10479 10.3333C6.34146 10.3333 4.73812 9.86299 3.29479 8.92229ZM12.415 8.45833C13.7344 7.65278 14.7483 6.55556 15.4567 5.16667C14.7483 3.77778 13.7344 2.68056 12.415 1.875C11.0956 1.06944 9.65806 0.666667 8.1025 0.666667C6.54694 0.666667 5.10944 1.06944 3.79 1.875C2.47056 2.68056 1.45667 3.77778 0.748333 5.16667C1.45667 6.55556 2.47056 7.65278 3.79 8.45833C5.10944 9.26389 6.54694 9.66667 8.1025 9.66667C9.65806 9.66667 11.0956 9.26389 12.415 8.45833Z" fill="#F5F5F5" fill-opacity="0.6"/>
</svg>
