<svg width="16" height="13" viewBox="0 0 16 13" fill="none" xmlns="http://www.w3.org/2000/svg">
<path d="M14.3574 6.1123C14.3857 6.19151 14.4133 6.27183 14.4414 6.35254C14.5084 6.54491 14.575 6.74077 14.6387 6.9375C14.6581 6.99768 14.6773 7.05794 14.6963 7.11816C14.7863 7.40407 14.8711 7.68972 14.9434 7.96582C15.0629 8.42228 15.1469 8.83766 15.1816 9.17969C15.1932 9.29369 15.1992 9.39956 15.1992 9.49609C15.1992 10.0239 15.2093 10.5982 14.8652 10.9932C14.7296 11.1487 14.4454 11.2866 14.1289 11.3877C13.9815 11.4347 13.8448 11.4686 13.7451 11.4902C13.6957 11.501 13.6557 11.5088 13.6289 11.5137C13.6155 11.5161 13.605 11.5175 13.5986 11.5186C13.5976 11.5187 13.5965 11.5184 13.5957 11.5186L7.12695 12.1768C7.09716 12.1798 7.06743 12.1867 7.03906 12.1963L7.04004 12.1953H7.04199L7.04297 12.1943C7.03812 12.1954 7.0301 12.1972 7.02051 12.1982C6.99497 12.2011 6.97743 12.1986 6.9707 12.1963C6.96936 12.1947 6.96689 12.1916 6.96387 12.1865C6.95056 12.1639 6.91797 12.0892 6.91797 11.915C6.91808 11.6296 7.05036 11.4626 7.19336 11.3535C7.26834 11.2963 7.34552 11.2573 7.4043 11.2324C7.43318 11.2202 7.45646 11.2117 7.4707 11.207C7.47759 11.2048 7.48233 11.2037 7.48438 11.2031H7.48242L7.48145 11.2021C7.48825 11.2004 7.49525 11.1994 7.50195 11.1973L7.54102 11.1846C7.69273 11.203 7.85617 11.2158 8.03223 11.2158C8.90989 11.2158 9.51628 10.9682 9.91113 10.6992C10.0094 10.6323 10.0929 10.5641 10.1641 10.5C10.2402 10.5605 10.3294 10.6237 10.4316 10.6846C10.8297 10.9215 11.4197 11.118 12.1855 10.9902C13.5157 10.7681 14.1835 10.085 14.2617 9.38672L14.2695 9.24707V5.875C14.2981 5.95315 14.3287 6.03199 14.3574 6.1123ZM8.24805 0C8.80029 0 9.19504 0.185345 9.45117 0.366211C9.58036 0.457447 9.67485 0.547843 9.73535 0.613281C9.76551 0.645902 9.78705 0.672207 9.7998 0.688477C9.80515 0.695301 9.80929 0.700093 9.81152 0.703125V0.704102C9.87512 0.797745 9.97576 0.860449 10.0879 0.875977C10.2 0.891403 10.3138 0.857969 10.4004 0.785156L10.3994 0.78418C10.4001 0.783591 10.4021 0.784135 10.4033 0.783203C10.4083 0.779214 10.4173 0.77191 10.4297 0.762695C10.4546 0.744197 10.4941 0.71647 10.5459 0.683594C10.6499 0.617567 10.8024 0.532255 10.9912 0.459961C11.3687 0.315498 11.8774 0.225745 12.4443 0.417969C12.9931 0.604135 13.2391 0.953172 13.3584 1.25391C13.4199 1.40912 13.4485 1.55433 13.4609 1.66016C13.4671 1.71235 13.469 1.75372 13.4697 1.78027V9.24707C13.4697 9.44052 13.2701 9.99809 12.0537 10.2012C11.5017 10.2933 11.1017 10.1524 10.8408 9.99707C10.7084 9.91817 10.61 9.834 10.5459 9.77148C10.5448 9.7704 10.5441 9.76864 10.543 9.76758V3.85156C10.543 3.63068 10.3635 3.45122 10.1426 3.45117C9.92166 3.45117 9.74219 3.63065 9.74219 3.85156V9.78906C9.73985 9.7918 9.73785 9.79499 9.73535 9.79785C9.68188 9.8591 9.59273 9.94763 9.45996 10.0381C9.19851 10.2161 8.74974 10.4159 8.03223 10.416C7.85432 10.416 7.69781 10.4033 7.56152 10.3828C7.08157 10.3105 6.83449 10.1348 6.71094 10.0078C6.64683 9.94193 6.60957 9.88218 6.58984 9.84473C6.58936 9.84381 6.58933 9.84268 6.58887 9.8418V4.52637C6.58887 4.30545 6.40939 4.12598 6.18848 4.12598C5.96776 4.12621 5.78906 4.3056 5.78906 4.52637V9.74609C5.74124 9.78259 5.67503 9.82811 5.58691 9.87012C5.3655 9.97568 4.99056 10.0777 4.42285 9.98145C3.87037 9.88772 3.59253 9.65659 3.45117 9.47949C3.37762 9.38731 3.33517 9.30183 3.31152 9.24316C3.30319 9.22248 3.29788 9.20501 3.29395 9.19238V4.96582C3.29394 4.745 3.11532 4.56558 2.89453 4.56543C2.67362 4.56543 2.49414 4.74491 2.49414 4.96582V9.08984C2.49234 9.09157 2.49111 9.09394 2.48926 9.0957C2.42108 9.16067 2.31698 9.24749 2.18066 9.32812C1.91193 9.48702 1.51523 9.62465 0.990234 9.52832C0.480684 9.43469 0.247347 9.17872 0.129883 8.96582C0.0675975 8.85291 0.0341861 8.74392 0.0166016 8.66406C0.00794504 8.62469 0.00322492 8.59343 0.000976562 8.57422C0.000315442 8.56855 0.000307257 8.56393 0 8.56055V2.89844C0.000823043 2.89232 0.00698119 2.82741 0.0371094 2.71484C0.0678305 2.60007 0.118111 2.45459 0.197266 2.30273C0.355361 1.99949 0.617696 1.68478 1.04785 1.50977C1.50462 1.32395 1.92656 1.32596 2.2373 1.37598C2.3926 1.40098 2.51798 1.43838 2.60254 1.46777C2.64469 1.48243 2.67677 1.49462 2.69629 1.50293C2.70577 1.50697 2.7123 1.5101 2.71582 1.51172L2.7168 1.5127V1.51172C2.82917 1.56743 2.96106 1.56781 3.07324 1.51172C3.18329 1.45663 3.26168 1.35374 3.28613 1.2334C3.28633 1.23255 3.28751 1.22913 3.28906 1.22363C3.29241 1.21181 3.29897 1.19041 3.31055 1.16211C3.33388 1.10509 3.37589 1.02124 3.44922 0.930664C3.59007 0.756747 3.86843 0.527634 4.42285 0.433594C4.99048 0.337362 5.39994 0.435138 5.65918 0.544922C5.79025 0.600471 5.88621 0.660845 5.94629 0.704102C5.97628 0.725711 5.99798 0.74269 6.00977 0.75293C6.01251 0.755314 6.01486 0.757217 6.0166 0.758789V0.759766C6.01832 0.761328 6.01989 0.762113 6.02051 0.762695C6.10229 0.843988 6.21491 0.885994 6.33008 0.87793C6.41779 0.871712 6.50041 0.837143 6.56543 0.780273L6.62207 0.71875H6.62305V0.717773L6.62402 0.716797L6.63867 0.699219C6.65293 0.682301 6.67629 0.655324 6.70898 0.62207C6.77474 0.555194 6.87602 0.46281 7.0127 0.370117C7.28476 0.185627 7.69486 5.57125e-06 8.24805 0ZM9.81152 0.704102L9.8125 0.705078V0.706055L9.81348 0.707031L9.81152 0.703125V0.704102Z" fill="#F5F5F5" fill-opacity="0.3"/>
</svg>
