<svg xmlns="http://www.w3.org/2000/svg" width="32" height="32" fill="none" viewBox="0 0 32 32">
    <path fill="currentColor"
          d="M6.5 18.854h-.6v.022zm3.912-8.56-.26.54a.6.6 0 0 0 .85-.429zm4.047-.779-.421.427a.6.6 0 0 0 .9-.064zm4.56 0-.491.344a.6.6 0 0 0 .871.12zm4.427 1.556-.6-.028v.028zm0 8.56h.6zm-3.826-6.225a.6.6 0 0 0-1.2 0h1.2m-4.695.778a.6.6 0 1 0-1.2 0h1.2m-3.913.508a.6.6 0 1 0-1.2 0h1.2m12.434-1.37h-.6zm1.54 8.627-.447-.4zm-1.797.761.059.598.031-.004zm-7.703.762-.059-.597a.6.6 0 0 0-.128.027zm.257-2.03.144.582.03-.008zm.141-.043.087-.594zM6.5 18.853h.6v-6.547H5.9v6.547zm16.946.779h-.6c0 .116-.148.732-1.575.964l.096.592.096.592c1.704-.276 2.583-1.181 2.583-2.148zm-2.079 1.556-.096-.592c-.627.102-1.075-.054-1.364-.221a1.8 1.8 0 0 1-.4-.318l-.013-.015.001.002.001.002h.001l-.477.364-.478.363.001.002.002.002.019.024.042.05q.053.061.147.152c.126.119.31.27.553.41.493.286 1.22.52 2.157.367zm-2.347-.778h.6v-7.004h-1.2v7.004zm0 0a45 45 0 0 1-.516-.307l.001-.002.001-.002.002-.003.002-.003-.006.01a1 1 0 0 1-.056.067 1.6 1.6 0 0 1-.302.256c-.29.192-.801.416-1.633.416v1.2c1.064 0 1.806-.292 2.295-.616.242-.16.416-.323.533-.454a2 2 0 0 0 .174-.222l.012-.02.005-.008.002-.003.001-.002zm-4.695 0h.6v-6.226h-1.2v6.226zm0 0-.464-.38.001-.002.002-.002.002-.003.004-.004-.004.004-.046.042c-.05.04-.134.1-.258.158-.241.112-.663.227-1.316.12l-.098.591-.097.592c.888.147 1.554 0 2.016-.214a2.4 2.4 0 0 0 .516-.322 2 2 0 0 0 .196-.188l.006-.007.002-.003.001-.001c.001-.001.001-.002-.463-.381m-2.176.524.097-.592c-.63-.104-.933-.357-1.08-.535a1 1 0 0 1-.165-.295l-.002-.005.001.005.001.004v.004h.001c0 .001 0 .002-.59.112l-.59.11v.001l.001.002v.004l.003.009.021.085q.02.074.066.186c.061.148.162.34.326.54.337.41.902.808 1.812.957zm-1.737-1.302h.6v-4.94h-1.2v4.94zm0 0-.47-.373.002-.002v-.001l.002-.002v.001l-.015.017a1.908 1.908 0 0 1-.422.33 1.93 1.93 0 0 1-1.339.217l-.105.59L7.96 21a3.13 3.13 0 0 0 2.706-.768 3 3 0 0 0 .208-.217l.005-.006.002-.003.001-.001zm-2.347.778.105-.59c-.57-.103-.814-.375-.934-.586a1.1 1.1 0 0 1-.137-.412v.008l-.599.024-.6.023.001.014.008.09q.01.082.037.21c.038.169.11.396.246.635.284.5.822 1.006 1.768 1.174zM19.02 9.515l.379.465h-.001l-.001.002.004-.003.028-.021q.04-.031.13-.086c.118-.073.292-.167.508-.248a2.46 2.46 0 0 1 1.65-.047l.188-.57.188-.57a3.66 3.66 0 0 0-2.445.063 4 4 0 0 0-.922.485l-.076.057-.006.005-.002.002h-.001v.001zm2.885-.507-.188.57c.615.202.88.575 1.008.888a1.7 1.7 0 0 1 .12.555l.001.026v.002-.005l.6.027c.599.03.599.029.599.028v-.014l.001-.023v-.073a2.886 2.886 0 0 0-.21-.976c-.24-.587-.744-1.246-1.743-1.575zm-7.446.507.478.363-.001.001-.001.002-.001.001.015-.017q.021-.027.076-.082c.073-.072.188-.173.342-.274A2.5 2.5 0 0 1 16.77 9.1V7.9c-.91 0-1.6.301-2.063.607a3.5 3.5 0 0 0-.665.571l-.04.048-.013.016-.004.006-.002.002-.001.001zM16.77 8.5v.6c.63 0 1.076.205 1.363.402a2 2 0 0 1 .386.346l.012.015q0 .001 0 0v-.001l-.002-.002c-.001-.001-.001-.001.49-.345l.492-.345h-.001q0-.002-.002-.003l-.004-.006-.05-.066a3.208 3.208 0 0 0-.641-.582 3.56 3.56 0 0 0-2.043-.613zm-6.358 1.793.59.113v.002l-.001.003-.001.004-.001.005v-.004l.021-.055a1 1 0 0 1 .144-.231c.145-.175.449-.426 1.082-.53l-.098-.592-.097-.592c-.907.149-1.472.54-1.81.945a2.1 2.1 0 0 0-.327.534 2 2 0 0 0-.09.283v.002c-.001.001-.001.002.588.113m1.736-1.285.098.592c.653-.108 1.118.002 1.407.12a1.7 1.7 0 0 1 .383.221l.009.008-.002-.002-.002-.002-.002-.001v-.001h-.001l.421-.428.422-.427h-.001l-.001-.002-.002-.002-.006-.006-.06-.054a2 2 0 0 0-.152-.115c-.128-.09-.31-.2-.549-.298-.48-.198-1.171-.342-2.059-.196zM6.5 12.306h.6c0 .016.03-.268.218-.617.175-.327.465-.665.943-.855l-.22-.558-.221-.558a3 3 0 0 0-1.56 1.404c-.262.489-.36.966-.36 1.184zm1.54-2.03.221.558a2.58 2.58 0 0 1 1.893 0l.002.002h-.001l-.002-.002.26-.54.26-.541h-.001l-.001-.001-.002-.001-.007-.003-.017-.008-.053-.023a3.731 3.731 0 0 0-.792-.216 3.8 3.8 0 0 0-1.98.217zM6.5 18.854h.6v-6.548H5.9v6.548zm16.946-5.533-.548.246.002.003.004.01.016.036.064.145a43.88 43.88 0 0 1 .926 2.305c.253.689.503 1.432.69 2.122.188.701.3 1.305.3 1.731h1.2c0-.589-.146-1.317-.342-2.044a27 27 0 0 0-.722-2.223 45 45 0 0 0-1.019-2.522L24 13.09l-.004-.01-.002-.004zM25.5 19.92h-.6c0 .625.005 1.222-.36 1.63l.446.4.447.4c.731-.815.667-1.943.667-2.43zm-.514 2.03-.447-.4c-.135.151-.444.303-.82.42a5 5 0 0 1-.62.148h-.001l.09.593.091.594h.003l.004-.001.015-.003a3 3 0 0 0 .222-.042c.141-.03.337-.076.552-.143.397-.123.987-.352 1.358-.765zm-1.797.761-.06-.597-7.702.762.06.597.058.597 7.703-.761zm-7.703.762-.187-.57h.002l.002-.002h.004l.006-.002.003-.001-.016.002c-.02.002-.024-.001-.011.003.026.008.051.03.06.044.002.004-.033-.053-.033-.236h-1.2c0 .325.061.618.207.86.154.252.372.4.59.472a1.23 1.23 0 0 0 .678.023l.051-.014.019-.005.007-.002.003-.001h.002v-.001zm-.77-.762h.6c0-.268.123-.423.27-.533a1 1 0 0 1 .307-.154h-.005v.001l-.145-.582-.144-.583h-.002l-.003.001-.024.007a2 2 0 0 0-.216.075 2.3 2.3 0 0 0-.482.271c-.365.271-.756.751-.756 1.497zm1.797-1.268v-.6q-.308-.001-.542-.037l-.087.594-.087.593q.326.049.716.05zm-.629-.043.087-.594c-.548-.08-.817-.273-.943-.398a.7.7 0 0 1-.12-.156l-.013-.028.001.004.002.007.002.006.001.003v.002l-.576.165-.577.165v.003l.002.003.002.009.027.076q.025.064.074.157c.067.122.17.276.327.433.321.32.832.622 1.617.736zm-.14.043.173.574.141-.043-.174-.574-.174-.574-.141.043zm7.702-10.37h-.6v2.189h1.2v-2.19zm0 2.189h-.6v6.37h1.2v-6.37zm0-2.19h-.6v2.19h1.2v-2.189zm0 2.19h-.6v6.371h1.2V13.26zm0 .06h.6v-.06h-1.2v.06zM25.5 19.92h.6c0-.588-.146-1.314-.34-2.04a27 27 0 0 0-.721-2.219 44 44 0 0 0-1.046-2.585l-.547.246-.548.246v.001l.002.003.004.01.017.038.065.148a43.979 43.979 0 0 1 .926 2.308c.253.687.503 1.428.688 2.117.189.7.3 1.302.3 1.727zm-2.054-6.598h-.6v6.31h1.2v-6.31z"/>
</svg>