<svg xmlns="http://www.w3.org/2000/svg" width="32" height="32" fill="none" viewBox="0 0 32 32">
    <path fill="currentColor" fill-opacity=".3"
          d="m22.357 16.112.084.24a28 28 0 0 1 .255.766c.09.286.175.572.247.848a8 8 0 0 1 .239 1.214q.017.172.017.316c0 .528.01 1.102-.334 1.497-.135.156-.42.294-.736.395a4 4 0 0 1-.5.126l-.03.005h-.003l-6.469.658a.4.4 0 0 0-.088.02l.001-.002h.003l-.022.003a.1.1 0 0 1-.05-.002l-.007-.01c-.013-.022-.046-.097-.046-.271 0-.285.132-.452.275-.561a1 1 0 0 1 .278-.147l.013-.004h-.002q.01-.004.02-.006l.039-.012q.227.028.491.03c.878 0 1.484-.247 1.88-.516q.145-.102.252-.199.114.092.268.185c.398.237.988.433 1.754.305 1.33-.222 1.997-.905 2.076-1.603l.008-.14v-3.372q.044.117.087.237M16.248 10c.552 0 .947.185 1.203.366a1.8 1.8 0 0 1 .349.322l.011.015v.001a.4.4 0 0 0 .59.081h-.002q.002 0 .004-.002l.027-.02q.038-.029.116-.08c.104-.065.256-.15.445-.223a2.1 2.1 0 0 1 1.453-.042c.55.186.795.535.914.836a1.6 1.6 0 0 1 .112.526v7.467c0 .194-.2.751-1.416.954-.552.092-.952-.049-1.213-.204a1.6 1.6 0 0 1-.295-.226l-.003-.003v-5.916a.4.4 0 0 0-.8 0v5.937l-.008.009c-.053.061-.142.15-.275.24-.262.178-.71.378-1.428.378q-.267-.002-.47-.033c-.48-.072-.727-.248-.851-.375a.7.7 0 0 1-.121-.163l-.001-.003v-5.316a.4.4 0 0 0-.8 0v5.22a1 1 0 0 1-.202.124c-.221.106-.596.208-1.164.111-.553-.093-.83-.324-.972-.502a1 1 0 0 1-.14-.236q-.011-.031-.017-.05v-4.227a.4.4 0 1 0-.8 0v4.124l-.005.006a1.68 1.68 0 0 1-1.5.433c-.508-.094-.742-.35-.86-.563a1.1 1.1 0 0 1-.128-.392L8 18.56v-5.662c0-.006.007-.07.037-.183.03-.115.081-.26.16-.412.158-.304.42-.618.85-.793a2.2 2.2 0 0 1 1.65-.007l.019.009a.4.4 0 0 0 .57-.279l.003-.01.021-.06a1 1 0 0 1 .14-.232c.14-.174.418-.403.973-.497.568-.097.977.001 1.236.11a1.5 1.5 0 0 1 .35.209l.008.006.004.004a.4.4 0 0 0 .544.017l.057-.061h.001v-.001l.001-.001.015-.018q.02-.027.07-.077c.066-.067.167-.16.304-.252a2.17 2.17 0 0 1 1.235-.37m1.563.704.002.001v.002z"/>
</svg>