<svg xmlns="http://www.w3.org/2000/svg" fill="currentColor" viewBox="0 0 32 32">
    <path fill="currentColor" fill-opacity="1"
          d="M14.334 16.393c-.57-.414-.738-.677-.82-1.179-2.334 3.604-.824 5.101 1.22 6.279-.12-.072-1.046-.709.42-2.35 1.008-1.128.887-1.781.673-2.103q-.123-.125-.263-.254s.146.076.263.254c.844.848 1.138 1.537.557 2.889.354-.106.518-.272.82-.786.526.973.307 1.467.003 2.357.82-.393 2.46-1.964 2.46-3.536 0-1.571-1.638-2.357-2.46-3.928-.823-1.572-.823-3.536-.823-3.536-1.527 1.805-2.172 3.027-2.05 5.893"/>
</svg>