<svg width="24" height="24" viewBox="0 0 24 24" fill="none" xmlns="http://www.w3.org/2000/svg">
<path d="M20.4375 12.6C20.7689 12.6 21.0375 12.3314 21.0375 12C21.0375 11.6686 20.7689 11.4 20.4375 11.4V12V12.6ZM21 12H20.4C20.4 16.6392 16.6392 20.4 12 20.4V21V21.6C17.3019 21.6 21.6 17.3019 21.6 12H21ZM12 21V20.4C7.36081 20.4 3.6 16.6392 3.6 12H3H2.4C2.4 17.3019 6.69807 21.6 12 21.6V21ZM3 12H3.6C3.6 7.36081 7.36081 3.6 12 3.6V3V2.4C6.69807 2.4 2.4 6.69807 2.4 12H3ZM12 3V3.6C16.6392 3.6 20.4 7.36081 20.4 12H21H21.6C21.6 6.69807 17.3019 2.4 12 2.4V3ZM12 21V20.4C11.6549 20.4 11.2788 20.2426 10.8844 19.8614C10.4871 19.4773 10.1019 18.8926 9.76546 18.1235C9.09328 16.5871 8.6625 14.4225 8.6625 12H8.0625H7.4625C7.4625 14.548 7.91316 16.8835 8.66607 18.6045C9.04214 19.464 9.50543 20.1973 10.0503 20.7241C10.5981 21.2537 11.2578 21.6 12 21.6V21ZM8.0625 12H8.6625C8.6625 9.57746 9.09328 7.41295 9.76546 5.87653C10.1019 5.10743 10.4871 4.5227 10.8844 4.13863C11.2788 3.75735 11.6549 3.6 12 3.6V3V2.4C11.2578 2.4 10.5981 2.74632 10.0503 3.2759C9.50543 3.80267 9.04214 4.53597 8.66607 5.39555C7.91316 7.11649 7.4625 9.45198 7.4625 12H8.0625ZM12 21V21.6C12.7422 21.6 13.4019 21.2537 13.9497 20.7241C14.4946 20.1973 14.9579 19.464 15.3339 18.6045C16.0868 16.8835 16.5375 14.548 16.5375 12H15.9375H15.3375C15.3375 14.4225 14.9067 16.5871 14.2345 18.1235C13.8981 18.8926 13.5129 19.4773 13.1156 19.8614C12.7212 20.2426 12.3451 20.4 12 20.4V21ZM15.9375 12H16.5375C16.5375 9.45198 16.0868 7.11649 15.3339 5.39555C14.9579 4.53597 14.4946 3.80267 13.9497 3.2759C13.4019 2.74632 12.7422 2.4 12 2.4V3V3.6C12.3451 3.6 12.7212 3.75735 13.1156 4.13863C13.5129 4.5227 13.8981 5.10743 14.2345 5.87653C14.9067 7.41295 15.3375 9.57746 15.3375 12H15.9375ZM3 12L3 12.6L20.4375 12.6V12V11.4L3 11.4L3 12Z" fill="url(#paint0_linear_781_4418)"/>
<defs>
<linearGradient id="paint0_linear_781_4418" x1="3" y1="12" x2="21" y2="12" gradientUnits="userSpaceOnUse">
<stop stop-color="#CBFF00"/>
<stop offset="1" stop-color="#07F499"/>
</linearGradient>
</defs>
</svg>
