<svg width="20" height="20" viewBox="0 0 20 20" fill="none" xmlns="http://www.w3.org/2000/svg">
<path d="M18.0376 10.2C18.369 10.2 18.6376 9.93135 18.6376 9.59998C18.6376 9.26861 18.369 8.99998 18.0376 8.99998V9.59998V10.2ZM18.6001 9.59998H18.0001C18.0001 14.2392 14.2393 18 9.6001 18V18.6V19.2C14.902 19.2 19.2001 14.9019 19.2001 9.59998H18.6001ZM9.6001 18.6V18C4.96091 18 1.2001 14.2392 1.2001 9.59998H0.600098H9.76324e-05C9.76324e-05 14.9019 4.29816 19.2 9.6001 19.2V18.6ZM0.600098 9.59998H1.2001C1.2001 4.96078 4.96091 1.19998 9.6001 1.19998V0.599976V-2.44379e-05C4.29816 -2.44379e-05 9.76324e-05 4.29804 9.76324e-05 9.59998H0.600098ZM9.6001 0.599976V1.19998C14.2393 1.19998 18.0001 4.96078 18.0001 9.59998H18.6001H19.2001C19.2001 4.29804 14.902 -2.44379e-05 9.6001 -2.44379e-05V0.599976ZM9.6001 18.6V18C9.25496 18 8.87887 17.8426 8.48448 17.4613C8.08721 17.0773 7.70204 16.4925 7.36556 15.7234C6.69338 14.187 6.2626 12.0225 6.2626 9.59998H5.6626H5.0626C5.0626 12.148 5.51326 14.4835 6.26617 16.2044C6.64224 17.064 7.10553 17.7973 7.65041 18.3241C8.19818 18.8537 8.85792 19.2 9.6001 19.2V18.6ZM5.6626 9.59998H6.2626C6.2626 7.17743 6.69338 5.01292 7.36556 3.47651C7.70204 2.70741 8.08721 2.12268 8.48448 1.73861C8.87887 1.35733 9.25496 1.19998 9.6001 1.19998V0.599976V-2.44379e-05C8.85792 -2.44379e-05 8.19818 0.3463 7.65041 0.875871C7.10553 1.40265 6.64224 2.13594 6.26617 2.99552C5.51326 4.71646 5.0626 7.05196 5.0626 9.59998H5.6626ZM9.6001 18.6V19.2C10.3423 19.2 11.002 18.8537 11.5498 18.3241C12.0947 17.7973 12.558 17.064 12.934 16.2044C13.6869 14.4835 14.1376 12.148 14.1376 9.59998H13.5376H12.9376C12.9376 12.0225 12.5068 14.187 11.8346 15.7234C11.4982 16.4925 11.113 17.0773 10.7157 17.4613C10.3213 17.8426 9.94523 18 9.6001 18V18.6ZM13.5376 9.59998H14.1376C14.1376 7.05196 13.6869 4.71646 12.934 2.99552C12.558 2.13594 12.0947 1.40265 11.5498 0.875871C11.002 0.3463 10.3423 -2.44379e-05 9.6001 -2.44379e-05V0.599976V1.19998C9.94523 1.19998 10.3213 1.35733 10.7157 1.73861C11.113 2.12268 11.4982 2.70741 11.8346 3.47651C12.5068 5.01292 12.9376 7.17743 12.9376 9.59998H13.5376ZM0.600098 9.59998L0.600098 10.2L18.0376 10.2V9.59998V8.99998L0.600098 8.99998L0.600098 9.59998Z" fill="#F5F5F5" fill-opacity="0.5"/>
</svg>
