<svg preserveAspectRatio="none" width="100%" height="100%" overflow="visible" style="display: block;" viewBox="0 0 24 24" fill="none" xmlns="http://www.w3.org/2000/svg">
<g id="Google Outline">
<path id="Vector" d="M19.8706 10.6667C19.9523 11.1533 20 11.6533 20 12.18C20 14.6133 19.1145 16.6667 17.5751 18.06C16.2264 19.28 14.3806 20 12.1737 20C8.97911 20 6.22049 18.2 4.87864 15.5867C4.32011 14.5067 3.99997 13.2933 3.99997 12C3.99997 10.7067 4.32011 9.49334 4.87864 8.41334C6.22049 5.8 8.97911 4 12.1737 4C14.3806 4 16.2264 4.79333 17.6364 6.08667L15.3069 8.36667C14.4555 7.57334 13.3793 7.16667 12.1737 7.16667C10.0417 7.16667 8.23667 8.57334 7.58958 10.4733C7.42611 10.9533 7.33075 11.4667 7.33075 12C7.33075 12.5333 7.4193 13.0467 7.58958 13.5267C8.23667 15.4267 10.0417 16.8333 12.1737 16.8333C13.2771 16.8333 14.2103 16.54 14.9459 16.06C15.8041 15.4933 16.3831 14.66 16.5806 13.6733H12.1737V10.6667H19.8706Z" stroke="url(#paint0_linear_0_6)" stroke-width="0.8" stroke-linejoin="round"/>
</g>
<defs>
<linearGradient id="paint0_linear_0_6" x1="3.99997" y1="12" x2="20" y2="12" gradientUnits="userSpaceOnUse">
<stop stop-color="#CBFF00" stop-opacity="0.4"/>
<stop offset="1" stop-color="#07F499" stop-opacity="0.4"/>
</linearGradient>
</defs>
</svg>
