<svg xmlns="http://www.w3.org/2000/svg" width="32" height="32" fill="none" viewBox="0 0 32 32">
    <path stroke="currentColor" stroke-linecap="round" stroke-linejoin="round" stroke-width="1.3"
          d="M22.5 19.183c2.17.574 2.892 1.587 3.387 2.28.563.79.859 2.424.355 2.492-.241.034.665.046-2.242.045m-4.328-8.596c1.099-.698 1.833-1.967 1.833-3.415 0-1.67-.976-3.1-2.361-3.695m-2.384 3.695c0 2.203-1.698 3.989-3.793 3.989s-3.793-1.786-3.793-3.99C9.174 9.787 10.872 8 12.967 8s3.793 1.786 3.793 3.989M5.852 23.956c-.465-.05-.474-1.496 0-2.494.474-.997 2.845-2.493 7.112-2.493s7.111 1.496 7.585 2.493c.474.998.504 2.425 0 2.494-.503.068-14.232.049-14.697 0"/>
</svg>