<svg width="32" height="32" viewBox="0 0 32 32" fill="none" xmlns="http://www.w3.org/2000/svg">
<path fill-rule="evenodd" clip-rule="evenodd" d="M9.16762 10.2473C9.91547 9.48137 10.9296 9.05108 11.9871 9.05108C13.0446 9.05108 14.0587 9.48137 14.8066 10.2473L15.9751 11.4434L17.1435 10.2473C17.5114 9.8571 17.9515 9.54584 18.438 9.33171C18.9246 9.11758 19.4479 9.00487 19.9774 9.00015C20.5069 8.99544 21.032 9.09882 21.5221 9.30425C22.0122 9.50969 22.4575 9.81307 22.832 10.1967C23.2064 10.5803 23.5025 11.0365 23.703 11.5386C23.9035 12.0407 24.0045 12.5788 23.9998 13.1213C23.9952 13.6638 23.8852 14.1999 23.6762 14.6984C23.4672 15.1969 23.1634 15.6477 22.7825 16.0246L15.9751 23L9.16762 16.0246C8.41999 15.2584 8 14.2194 8 13.136C8 12.0526 8.41999 11.0135 9.16762 10.2473V10.2473Z" stroke="#F5F5F5" stroke-opacity="0.5" stroke-width="1.2" stroke-linejoin="round"/>
</svg>
