<svg width="24" height="24" viewBox="0 0 24 24" fill="none" xmlns="http://www.w3.org/2000/svg">
<path d="M11.5 19V15.2463C10.5808 15.1783 9.78117 14.8452 9.101 14.247C8.42083 13.649 7.99483 12.8962 7.823 11.9885C6.76533 11.8642 5.86375 11.4305 5.11825 10.6875C4.37275 9.9445 4 9.04867 4 8V7.6155C4 7.168 4.15733 6.78683 4.472 6.472C4.78683 6.15733 5.168 6 5.6155 6H7.65375V5.6155C7.65375 5.168 7.81117 4.78683 8.126 4.472C8.44067 4.15733 8.82175 4 9.26925 4H14.7308C15.1782 4 15.5593 4.15733 15.874 4.472C16.1888 4.78683 16.3462 5.168 16.3462 5.6155V6H18.3845C18.832 6 19.2132 6.15733 19.528 6.472C19.8427 6.78683 20 7.168 20 7.6155V8C20 9.04867 19.6273 9.9445 18.8818 10.6875C18.1363 11.4305 17.2347 11.8642 16.177 11.9885C16.0052 12.8962 15.5792 13.649 14.899 14.247C14.2188 14.8452 13.4192 15.1783 12.5 15.2463V19H15.1155C15.2577 19 15.3765 19.0477 15.472 19.1432C15.5677 19.2387 15.6155 19.3577 15.6155 19.5C15.6155 19.6423 15.5677 19.7613 15.472 19.8568C15.3765 19.9523 15.2577 20 15.1155 20H8.8845C8.74233 20 8.6235 19.9523 8.528 19.8568C8.43233 19.7613 8.3845 19.6423 8.3845 19.5C8.3845 19.3577 8.43233 19.2387 8.528 19.1432C8.6235 19.0477 8.74233 19 8.8845 19H11.5ZM7.65375 10.9155V7H5.6155C5.436 7 5.2885 7.05767 5.173 7.173C5.05767 7.2885 5 7.436 5 7.6155V8C5 8.74867 5.25383 9.39967 5.7615 9.953C6.26917 10.5062 6.89992 10.827 7.65375 10.9155ZM14.3462 13.3077C14.9872 12.6667 15.3077 11.8847 15.3077 10.9615V5.6155C15.3077 5.436 15.25 5.2885 15.1345 5.173C15.0192 5.05767 14.8717 5 14.6923 5H9.30775C9.12825 5 8.98083 5.05767 8.8655 5.173C8.75 5.2885 8.69225 5.436 8.69225 5.6155V10.9615C8.69225 11.8847 9.01275 12.6667 9.65375 13.3077C10.2949 13.9488 11.077 14.2692 12 14.2692C12.923 14.2692 13.7051 13.9488 14.3462 13.3077ZM16.3462 10.9155C17.1001 10.827 17.7308 10.5062 18.2385 9.953C18.7462 9.39967 19 8.74867 19 8V7.6155C19 7.436 18.9423 7.2885 18.827 7.173C18.7115 7.05767 18.564 7 18.3845 7H16.3462V10.9155Z" fill="#C1C1C1"/>
<path d="M14.3462 13.3077C14.9872 12.6667 15.3077 11.8847 15.3077 10.9615V5.6155C15.3077 5.436 15.25 5.2885 15.1345 5.173C15.0192 5.05767 14.8717 5 14.6923 5H9.30775C9.12825 5 8.98083 5.05767 8.8655 5.173C8.75 5.2885 8.69225 5.436 8.69225 5.6155V10.9615C8.69225 11.8847 9.01275 12.6667 9.65375 13.3077C10.2949 13.9488 11.077 14.2692 12 14.2692C12.923 14.2692 13.7051 13.9488 14.3462 13.3077Z" fill="#C1C1C1"/>
</svg>
