<svg width="24" height="24" viewBox="0 0 24 24" fill="none" xmlns="http://www.w3.org/2000/svg">
<path d="M10.891 3.17212C11.2719 2.14262 12.7281 2.14262 13.109 3.17212L15.0051 8.29626C15.1249 8.61993 15.3801 8.87512 15.7037 8.99489L20.8279 10.891C21.8574 11.2719 21.8574 12.728 20.8279 13.109L15.7037 15.0051C15.3801 15.1249 15.1249 15.3801 15.0051 15.7037L13.109 20.8279C12.7281 21.8574 11.2719 21.8574 10.891 20.8279L8.9949 15.7037C8.87513 15.3801 8.61993 15.1249 8.29626 15.0051L3.17212 13.109C2.14263 12.728 2.14262 11.2719 3.17212 10.891L8.29626 8.99489C8.61993 8.87512 8.87513 8.61993 8.9949 8.29626L10.891 3.17212Z" stroke="#F5F5F5" stroke-opacity="0.6" stroke-width="1.2" stroke-linejoin="round"/>
</svg>
