<svg width="24" height="24" viewBox="0 0 24 24" fill="none" xmlns="http://www.w3.org/2000/svg">
<path d="M20.7016 12.5294C20.7016 12.198 20.433 11.9294 20.1016 11.9294C19.7702 11.9294 19.5016 12.198 19.5016 12.5294H20.1016H20.7016ZM11.5508 4.65882C11.8822 4.65882 12.1508 4.39019 12.1508 4.05882C12.1508 3.72745 11.8822 3.45882 11.5508 3.45882V4.05882V4.65882ZM16.4262 12.5294C16.4262 12.198 16.1576 11.9294 15.8262 11.9294C15.4948 11.9294 15.2262 12.198 15.2262 12.5294H15.8262H16.4262ZM11.5508 8.89412C11.8822 8.89412 12.1508 8.62549 12.1508 8.29412C12.1508 7.96275 11.8822 7.69412 11.5508 7.69412V8.29412V8.89412ZM15.752 9.04144C15.9874 8.80823 15.9892 8.42833 15.756 8.19292C15.5228 7.9575 15.1429 7.95571 14.9075 8.18892L15.3298 8.61518L15.752 9.04144ZM11.1285 11.9324C10.8931 12.1656 10.8913 12.5455 11.1245 12.7809C11.3578 13.0164 11.7376 13.0182 11.9731 12.7849L11.5508 12.3587L11.1285 11.9324ZM21 5.99481L21.4223 6.42106C21.5842 6.26067 21.6412 6.02238 21.5695 5.80604C21.4978 5.5897 21.3097 5.43266 21.0841 5.40072L21 5.99481ZM17.5989 9.36396L17.4108 9.9337C17.6251 10.0045 17.8609 9.94902 18.0212 9.79022L17.5989 9.36396ZM14.5758 6.36916L14.1535 5.9429C13.9909 6.10399 13.9341 6.34356 14.0071 6.56051L14.5758 6.36916ZM17.9768 3L18.5707 2.91436C18.5383 2.69007 18.3824 2.50314 18.1675 2.43111C17.9527 2.35909 17.7156 2.41426 17.5546 2.57374L17.9768 3ZM15.3316 8.61526L14.7629 8.80661C14.8231 8.9856 14.9641 9.12579 15.1434 9.185L15.3316 8.61526ZM18.3547 5.62045L17.7609 5.70609C17.7989 5.97003 18.0066 6.17717 18.2707 6.21454L18.3547 5.62045ZM20.1016 12.5294H19.5016C19.5016 16.8709 15.9473 20.4 11.5508 20.4V21V21.6C16.5993 21.6 20.7016 17.5443 20.7016 12.5294H20.1016ZM11.5508 21V20.4C7.15435 20.4 3.6 16.8709 3.6 12.5294H3H2.4C2.4 17.5443 6.5023 21.6 11.5508 21.6V21ZM3 12.5294H3.6C3.6 8.18792 7.15435 4.65882 11.5508 4.65882V4.05882V3.45882C6.5023 3.45882 2.4 7.51454 2.4 12.5294H3ZM15.8262 12.5294H15.2262C15.2262 14.5318 13.586 16.1647 11.5508 16.1647V16.7647V17.3647C14.2381 17.3647 16.4262 15.2052 16.4262 12.5294H15.8262ZM11.5508 16.7647V16.1647C9.51559 16.1647 7.8754 14.5318 7.8754 12.5294H7.2754H6.6754C6.6754 15.2052 8.86354 17.3647 11.5508 17.3647V16.7647ZM7.2754 12.5294H7.8754C7.8754 10.527 9.51559 8.89412 11.5508 8.89412V8.29412V7.69412C8.86354 7.69412 6.6754 9.85363 6.6754 12.5294H7.2754ZM15.3298 8.61518L14.9075 8.18892L11.1285 11.9324L11.5508 12.3587L11.9731 12.7849L15.752 9.04144L15.3298 8.61518ZM21 5.99481L20.5777 5.56855L17.1767 8.9377L17.5989 9.36396L18.0212 9.79022L21.4223 6.42106L21 5.99481ZM14.5758 6.36916L14.998 6.79541L18.3991 3.42626L17.9768 3L17.5546 2.57374L14.1535 5.9429L14.5758 6.36916ZM17.5989 9.36396L17.7871 8.79422L15.5197 8.04552L15.3316 8.61526L15.1434 9.185L17.4108 9.9337L17.5989 9.36396ZM15.3316 8.61526L15.9002 8.42391L15.1444 6.1778L14.5758 6.36916L14.0071 6.56051L14.7629 8.80661L15.3316 8.61526ZM17.9768 3L17.383 3.08564L17.7609 5.70609L18.3547 5.62045L18.9486 5.53481L18.5707 2.91436L17.9768 3ZM18.3547 5.62045L18.2707 6.21454L20.9159 6.58889L21 5.99481L21.0841 5.40072L18.4388 5.02637L18.3547 5.62045Z" fill="url(#paint0_linear_779_1800)"/>
<defs>
<linearGradient id="paint0_linear_779_1800" x1="3" y1="12" x2="21" y2="12" gradientUnits="userSpaceOnUse">
<stop stop-color="#CBFF00"/>
<stop offset="1" stop-color="#07F499"/>
</linearGradient>
</defs>
</svg>
